<svg xmlns="http://www.w3.org/2000/svg" width="430" height="430" fill="none" viewBox="0 0 430 430"><g stroke-linecap="round" stroke-linejoin="round" stroke-miterlimit="10" stroke-width="12"><path stroke="#08a88a" d="M232.464 169.833c9.436-18.208 19.135-25.099 33.11-33.11-12.955-6.92-25.206-16.747-33.11-33.11-11.111 21.213-22.851 26.062-33.11 33.11 20.596 9.798 28.253 25.367 33.11 33.11m55.378-72.93c3.322-6.194 8.389-13.048 17.27-17.27-4.709-2.534-13.352-7.998-17.27-17.27-5.519 10.961-12.374 14.24-17.27 17.27 4.399 1.837 13.539 8.792 17.27 17.27m-122.87-15.754c3.893-7.258 9.83-15.29 20.236-20.236-5.517-2.97-15.645-9.371-20.236-20.236-6.487 12.926-15.29 17.282-20.236 20.236 5.155 2.153 15.864 10.301 20.236 20.236"/><path stroke="#121331" d="m56.543 333.213-.54 7.38-4.62 35.31 102.5 13.42 4.63-35.31s11.39-18.33 15.21-47.58c1.38-10.48 2.69-20.5 3.8-29.03m-115.079-43.23-5.05-71.4c-.53-7.56 5.17-14.13 12.73-14.66.37-.03.74-.04 1.1-.04 8.02 0 14.78 6.2 15.35 14.31l4.68 66.27m39.699-8.97 12.35-58.88c.26-1.11.38-2.21.38-3.3 0-6.63-4.56-12.62-11.29-14.17-7.84-1.81-15.66 3.07-17.47 10.91l-17.37 73.2"/><path stroke="#121331" d="m121.313 265.603 4.87-37.19c.98-7.52 7.88-12.82 15.4-11.83 8.43 1.1 14.37 8.83 13.27 17.27l-4.65 35.53c-1.05 8.03-8.45 13.66-16.47 12.53-7.92-1.12-13.46-8.39-12.42-16.31"/><path stroke="#121331" d="M162.792 285.623c-7.99-.91-13.7-8.17-12.71-16.15l3.81-30.69c1.04-7.98 8.36-13.6 16.33-12.55 7.98 1.04 13.6 8.36 12.55 16.33l-4 30.57c-1.02 7.82-8.14 13.38-15.98 12.49m-106.249 47.59-23.66-41.3a38.64 38.64 0 0 1-.4-37.67 38.6 38.6 0 0 1 26.64-19.44l38.84-7.43c4.53-.87 8.92 2.08 9.83 6.61 2.5 12.46-4.64 24.84-16.67 28.94l-13.99 4.76s32.3 4.81 38.68 45.91m111.65-49.36c1.15 10.26 2.83 25.21 4.62 41.23 3.28 29.32 14.33 47.85 14.33 47.85l3.96 35.39 102.74-11.5-3.96-35.39-.11-2.1m-2.921-53.66-.98-17.98-4-29.32-.04-.3"/><path stroke="#121331" d="m254.933 253.343-31.77-59.86c-3.74-7.12-12.55-9.86-19.67-6.12s-9.86 12.55-6.12 19.67l30.08 57.23m103.12 8.24c8.1-.91 13.88-8.28 12.83-16.36l-3.78-29.08c-.84-7.54-7.64-12.96-15.17-12.12-8.45.95-14.54 8.56-13.59 17.02l3.65 27.95c1.03 7.87 8.17 13.47 16.06 12.59"/><path stroke="#121331" d="M272.692 278.983c8.09-.91 13.87-8.27 12.83-16.34l-4.08-31.58c-.84-7.54-7.64-12.96-15.17-12.12-8.45.95-14.54 8.56-13.59 17.02l3.94 30.42c1.02 7.88 8.17 13.48 16.07 12.6m29.001-3.25c8.07-.9 13.84-8.23 12.83-16.29l-4.31-38.2c-.89-7.99-8.1-13.75-16.1-12.85-7.99.89-13.75 8.1-12.85 16.1l4.36 38.59c.99 7.9 8.16 13.54 16.07 12.65m-8.64 35.25s8.85-20.61 26.7-24.41 35.07 1.25 35.07 1.25l11.23-25.49c5.23-11.86 19.21-17.08 30.93-11.54 4.4 2.08 6.4 7.25 4.55 11.75l-15.2 36.97a78.3 78.3 0 0 1-38.05 40.58"/></g></svg>